<?xml version="1.0" encoding="UTF-8"?>
<svg width="512" height="512" viewBox="0 0 512 512" fill="none" xmlns="http://www.w3.org/2000/svg">
  <circle cx="256" cy="256" r="240" fill="#E53E3E"/>
  <path d="M139.79 139.79C187.723 91.8572 244.628 76.5714 256 76.5714C267.372 76.5714 324.277 91.8572 372.21 139.79C420.143 187.723 435.429 244.628 435.429 256C435.429 267.372 420.143 324.277 372.21 372.21C324.277 420.143 267.372 435.429 256 435.429C244.628 435.429 187.723 420.143 139.79 372.21C91.8572 324.277 76.5714 267.372 76.5714 256C76.5714 244.628 91.8572 187.723 139.79 139.79Z" stroke="white" stroke-width="2"/>
  <path d="M139.79 372.21C91.8572 324.277 76.5714 267.372 76.5714 256C76.5714 244.628 91.8572 187.723 139.79 139.79C187.723 91.8572 244.628 76.5714 256 76.5714C267.372 76.5714 324.277 91.8572 372.21 139.79C420.143 187.723 435.429 244.628 435.429 256C435.429 267.372 420.143 324.277 372.21 372.21C324.277 420.143 267.372 435.429 256 435.429C244.628 435.429 187.723 420.143 139.79 372.21Z" stroke="white" stroke-width="2"/>
  <path d="M395 117C367.5 158.5 329.5 207.5 292 235.5C254.5 263.5 217 270.5 179.5 298C142 325.5 104.5 374.5 77 416" stroke="white" stroke-width="4"/>
</svg> 